<?xml version="1.0" encoding="UTF-8" standalone="no"?>
<svg
   xmlns:dc="http://purl.org/dc/elements/1.1/"
   xmlns:cc="http://creativecommons.org/ns#"
   xmlns:rdf="http://www.w3.org/1999/02/22-rdf-syntax-ns#"
   xmlns:svg="http://www.w3.org/2000/svg"
   xmlns="http://www.w3.org/2000/svg"
   xmlns:sodipodi="http://sodipodi.sourceforge.net/DTD/sodipodi-0.dtd"
   xmlns:inkscape="http://www.inkscape.org/namespaces/inkscape"
   id="svg8"
   version="1.1"
   viewBox="0 0 210 297"
   height="297mm"
   width="210mm"
   inkscape:version="1.0.2 (e86c870879, 2021-01-15, custom)"
   sodipodi:docname="ImpossibleToroidalPolyhedron.svg">
  <defs
     id="defs2">
    <inkscape:path-effect
       effect="copy_rotate"
       starting_point="128.7133,45.168156"
       origin="95.627975,45.168156"
       id="path-effect1770"
       is_visible="true"
       lpeversion="1"
       method="normal"
       num_copies="6"
       starting_angle="0"
       rotation_angle="60"
       gap="-0.01"
       copies_to_360="true"
       mirror_copies="false"
       split_items="true" />
    <inkscape:perspective
       sodipodi:type="inkscape:persp3d"
       inkscape:vp_x="-28.560917 : 182.52036 : 1"
       inkscape:vp_y="0 : 570.66675 : 0"
       inkscape:vp_z="285.19823 : 182.52036 : 1"
       inkscape:persp3d-origin="128.31865 : 154.27236 : 1"
       id="perspective10" />
  </defs>
  <sodipodi:namedview
     id="base"
     pagecolor="#ffffff"
     bordercolor="#666666"
     borderopacity="1.0"
     inkscape:pageopacity="0.0"
     inkscape:pageshadow="2"
     inkscape:zoom="1.4"
     inkscape:cx="244.10717"
     inkscape:cy="266.93854"
     inkscape:document-units="px"
     inkscape:current-layer="layer1"
     inkscape:document-rotation="0"
     showgrid="false"
     inkscape:window-width="1920"
     inkscape:window-height="1017"
     inkscape:window-x="1912"
     inkscape:window-y="-8"
     inkscape:window-maximized="1"
     inkscape:snap-center="true" />
  <metadata
     id="metadata5">
    <rdf:RDF>
      <cc:Work
         rdf:about="">
        <dc:format>image/svg+xml</dc:format>
        <dc:type
           rdf:resource="http://purl.org/dc/dcmitype/StillImage" />
        <dc:title></dc:title>
      </cc:Work>
    </rdf:RDF>
  </metadata>
  <g
     inkscape:label="Layer 1"
     inkscape:groupmode="layer"
     id="layer1">
    <path
       style="fill:#2c89a0;stroke:#000000;stroke-width:0.264583px;stroke-linecap:butt;stroke-linejoin:miter;stroke-opacity:1"
       d="M 75.969579,91.284895 H 95.627975 L 85.798778,108.30956 H 66.140382 Z"
       id="path1753" />
    <path
       style="fill:#216778;stroke:#000000;stroke-width:0.264583px;stroke-linecap:butt;stroke-linejoin:miter;stroke-opacity:1"
       d="m 66.140382,108.30956 h 19.658396 l 9.829197,17.02467 H 75.969579 Z"
       id="path1755" />
    <path
       style="fill:#2c89a0;stroke:#000000;stroke-width:0.264583px;stroke-linecap:butt;stroke-linejoin:miter;stroke-opacity:1"
       d="m 85.798778,108.30956 17.024672,-9.829194 9.82919,-17.02467 -17.024665,9.829199 z"
       id="path1757" />
    <path
       style="fill:#216778;stroke:#000000;stroke-width:0.264583px;stroke-linecap:butt;stroke-linejoin:miter;stroke-opacity:1"
       d="m 85.798778,108.30956 17.024672,-9.829194 9.82919,17.024674 -17.024665,9.82919 z"
       id="path1759" />
    <path
       style="fill:#164450;stroke:#000000;stroke-width:0.264583px;stroke-linecap:butt;stroke-linejoin:miter;stroke-opacity:1"
       d="m 95.627975,125.33423 17.024665,-9.82919 h 19.6584 l -17.02467,9.8292 z"
       id="path1761" />
    <path
       style="fill:#800000;stroke:#000000;stroke-width:0.264583px;stroke-linecap:butt;stroke-linejoin:miter;stroke-opacity:1"
       id="path1816"
       d="m 68.774108,64.431027 9.829198,17.02467 -19.658396,10e-7 -9.829198,-17.02467 z" />
    <path
       style="fill:#2c89a0;stroke:#000000;stroke-width:0.264583px;stroke-linecap:butt;stroke-linejoin:miter;stroke-opacity:1"
       id="path1818"
       d="m 49.115712,64.431028 9.829198,17.02467 -9.829198,17.024669 -9.829198,-17.02467 z" />
    <path
       style="fill:#800000;stroke:#000000;stroke-width:0.264583px;stroke-linecap:butt;stroke-linejoin:miter;stroke-opacity:1"
       id="path1820"
       d="m 58.944912,81.455697 17.02467,9.8292 19.658392,-7e-6 -17.024668,-9.829193 z" />
    <path
       style="fill:#2c89a0;stroke:#000000;stroke-width:0.264583px;stroke-linecap:butt;stroke-linejoin:miter;stroke-opacity:1"
       id="path1822"
       d="m 58.944912,81.455697 17.02467,9.8292 -9.829201,17.024663 -17.024669,-9.829193 z" />
    <path
       style="fill:#216778;stroke:#000000;stroke-width:0.264583px;stroke-linecap:butt;stroke-linejoin:miter;stroke-opacity:1"
       id="path1824"
       d="m 49.115715,98.480366 17.024666,9.829194 9.8292,17.02467 -17.024671,-9.82919 z" />
    <path
       style="fill:#550000;stroke:#000000;stroke-width:0.264583px;stroke-linecap:butt;stroke-linejoin:miter;stroke-opacity:1"
       id="path1805"
       d="m 88.432504,44.772632 -9.829198,17.02467 -9.829199,-17.024669 9.829198,-17.02467 z" />
    <path
       style="fill:#800000;stroke:#000000;stroke-width:0.264583px;stroke-linecap:butt;stroke-linejoin:miter;stroke-opacity:1"
       id="path1807"
       d="m 78.603305,27.747963 -9.829198,17.02467 -19.658395,-10e-7 9.829198,-17.02467 z" />
    <path
       style="fill:#550000;stroke:#000000;stroke-width:0.264583px;stroke-linecap:butt;stroke-linejoin:miter;stroke-opacity:1"
       id="path1809"
       d="m 68.774109,44.772634 -2e-6,19.658397 9.829202,17.024663 -3e-6,-19.658392 z" />
    <path
       style="fill:#800000;stroke:#000000;stroke-width:0.264583px;stroke-linecap:butt;stroke-linejoin:miter;stroke-opacity:1"
       id="path1811"
       d="m 68.774109,44.772634 -2e-6,19.658397 -19.658391,-7e-6 -4e-6,-19.658392 z" />
    <path
       style="fill:#2c89a0;stroke:#000000;stroke-width:0.264583px;stroke-linecap:butt;stroke-linejoin:miter;stroke-opacity:1"
       id="path1813"
       d="m 49.115715,44.772634 10e-7,19.65839 -9.8292,17.024674 -10e-7,-19.658396 z" />
    <path
       style="fill:#2b0000;stroke:#000000;stroke-width:0.264583px;stroke-linecap:butt;stroke-linejoin:miter;stroke-opacity:1"
       id="path1794"
       d="M 115.28637,51.968105 H 95.627975 l 9.829195,-17.02467 h 19.6584 z" />
    <path
       style="fill:#550000;stroke:#000000;stroke-width:0.264583px;stroke-linecap:butt;stroke-linejoin:miter;stroke-opacity:1"
       id="path1796"
       d="m 125.11557,34.943435 h -19.6584 l -9.829195,-17.02467 h 19.658395 z" />
    <path
       style="fill:#2b0000;stroke:#000000;stroke-width:0.264583px;stroke-linecap:butt;stroke-linejoin:miter;stroke-opacity:1"
       id="path1798"
       d="M 105.45717,34.943437 88.4325,44.772634 78.60331,61.797304 95.627975,51.968105 Z" />
    <path
       style="fill:#550000;stroke:#000000;stroke-width:0.264583px;stroke-linecap:butt;stroke-linejoin:miter;stroke-opacity:1"
       id="path1800"
       d="M 105.45717,34.943437 88.4325,44.772634 78.60331,27.747964 95.627975,17.918765 Z" />
    <path
       style="fill:#800000;stroke:#000000;stroke-width:0.264583px;stroke-linecap:butt;stroke-linejoin:miter;stroke-opacity:1"
       id="path1802"
       d="M 95.627975,17.918768 78.60331,27.747964 h -19.6584 l 17.02467,-9.829199 z" />
    <path
       style="fill:#164450;stroke:#000000;stroke-width:0.264583px;stroke-linecap:butt;stroke-linejoin:miter;stroke-opacity:1"
       id="path1783"
       d="m 122.48184,78.821972 -9.8292,-17.02467 19.6584,-1e-6 9.8292,17.02467 z" />
    <path
       style="fill:#2b0000;stroke:#000000;stroke-width:0.264583px;stroke-linecap:butt;stroke-linejoin:miter;stroke-opacity:1"
       id="path1785"
       d="m 142.14024,78.821971 -9.8292,-17.02467 9.8292,-17.024669 9.82919,17.02467 z" />
    <path
       style="fill:#164450;stroke:#000000;stroke-width:0.264583px;stroke-linecap:butt;stroke-linejoin:miter;stroke-opacity:1"
       id="path1787"
       d="m 132.31104,61.797302 -17.02467,-9.8292 -19.658396,7e-6 17.024666,9.829193 z" />
    <path
       style="fill:#2b0000;stroke:#000000;stroke-width:0.264583px;stroke-linecap:butt;stroke-linejoin:miter;stroke-opacity:1"
       id="path1789"
       d="m 132.31104,61.797302 -17.02467,-9.8292 9.8292,-17.024663 17.02467,9.829193 z" />
    <path
       style="fill:#550000;stroke:#000000;stroke-width:0.264583px;stroke-linecap:butt;stroke-linejoin:miter;stroke-opacity:1"
       id="path1791"
       d="m 142.14023,44.772633 -17.02466,-9.829194 -9.8292,-17.024674 17.02467,9.829197 z" />
    <path
       style="fill:#216778;stroke:#000000;stroke-width:0.264583px;stroke-linecap:butt;stroke-linejoin:miter;stroke-opacity:1"
       id="path1772"
       d="m 102.82344,98.480365 9.8292,-17.02467 9.8292,17.024669 -9.8292,17.024666 z" />
    <path
       style="fill:#164450;stroke:#000000;stroke-width:0.264583px;stroke-linecap:butt;stroke-linejoin:miter;stroke-opacity:1"
       id="path1774"
       d="m 112.65264,115.50503 9.8292,-17.024666 19.6584,1e-6 -9.8292,17.024675 z" />
    <path
       style="fill:#216778;stroke:#000000;stroke-width:0.264583px;stroke-linecap:butt;stroke-linejoin:miter;stroke-opacity:1"
       id="path1776"
       d="m 122.48184,98.480363 0,-19.658397 -9.8292,-17.024663 0,19.658392 z" />
    <path
       style="fill:#164450;stroke:#000000;stroke-width:0.264583px;stroke-linecap:butt;stroke-linejoin:miter;stroke-opacity:1"
       id="path1778"
       d="m 122.48184,98.480363 0,-19.658397 19.65839,7e-6 1e-5,19.658392 z" />
    <path
       style="fill:#2b0000;stroke:#000000;stroke-width:0.264583px;stroke-linecap:butt;stroke-linejoin:miter;stroke-opacity:1"
       id="path1780"
       d="m 142.14023,98.480363 0,-19.65839 9.8292,-17.024674 0,19.658396 z" />
  </g>
</svg>
